<?xml version="1.0" standalone="no"?>
<!DOCTYPE svg PUBLIC "-//W3C//DTD SVG 1.1//EN" "http://www.w3.org/Graphics/SVG/1.1/DTD/svg11.dtd" >
<svg xmlns="http://www.w3.org/2000/svg">
<metadata></metadata>
<defs>
<font id="roadgeek_2005_series_eregular" horiz-adv-x="1013" >
<font-face units-per-em="2048" ascent="1638" descent="-410" />
<missing-glyph horiz-adv-x="473" />
<glyph horiz-adv-x="2048" />
<glyph horiz-adv-x="2048" />
<glyph horiz-adv-x="682" />
<glyph d="M127 1481h170q39 -129 211 -129q174 0 213 129h164q-20 -150 -120.5 -233t-260.5 -83t-257 83t-120 233z" />
<glyph d="M346 1317q0 63 48 108t112 45q63 0 110.5 -45t47.5 -108q0 -59 -47.5 -105.5t-110.5 -46.5t-111.5 46t-48.5 106z" />
<glyph d="M233 1427q0 113 78 189t195 76q119 0 196.5 -76t77.5 -189q0 -115 -77.5 -188.5t-196.5 -73.5q-117 0 -195 74t-78 188zM387 1427q0 -49 35 -83.5t84 -34.5q51 0 86 34.5t35 83.5t-35 83t-86 34q-49 0 -84 -33.5t-35 -83.5z" />
<glyph unicode="&#xa;" d="M66 1165l176 316h354l-295 -316h-235zM510 1165l176 316h356l-294 -316h-238z" />
<glyph d="M309 -215q0 115 156 215h121q-104 -115 -105 -195q0 -59 72 -59q76 0 162 47l53 -80q-125 -92 -256 -92q-203 0 -203 164z" />
<glyph d="M117 1481h188l203 -148l203 148h184l-246 -316h-284z" />
<glyph unicode="&#xd;" horiz-adv-x="499" d="M129 0v1001h246v-1001h-246z" />
<glyph horiz-adv-x="1443" d="M0 0l1198 2060h246l-1198 -2060h-246z" />
<glyph horiz-adv-x="1101" d="M53 760v237h129v125q0 129 59.5 189.5t186.5 60.5q33 0 75 -3t70 -7v-215q-29 4 -43 4h-30q-43 0 -59.5 -24.5t-16.5 -67.5v-62h149v-237h-149v-760h-242v760h-129zM727 1276q0 51 36 86t89 35q51 0 88 -35t37 -86t-37 -88t-88 -37q-53 0 -89 36t-36 89zM731 0v1001h246 v-1001h-246z" />
<glyph horiz-adv-x="1093" d="M53 760v237h129v125q0 129 59.5 189.5t186.5 60.5q33 0 75 -3t70 -7v-215q-29 4 -43 4h-30q-43 0 -59.5 -24.5t-16.5 -67.5v-62h149v-237h-149v-760h-242v760h-129zM727 0v1294l246 103v-1397h-246z" />
<glyph horiz-adv-x="1261" d="M74 608.5q0 16.5 16 30.5l436 385q16 14 32.5 11t27 -14t10.5 -27.5t-16 -30.5l-437 -385q-16 -14 -32.5 -11.5t-26.5 14t-10 28zM178 0v1372h246v-1161h780v-211h-1026z" />
<glyph horiz-adv-x="491" d="M16 610.5q-2 16.5 15 30.5l391 381q14 14 31.5 12t28 -12t11.5 -26.5t-14 -30.5l-391 -381q-16 -14 -32.5 -13.5t-27 12t-12.5 28zM125 0v1294l246 103v-1397h-246z" />
<glyph horiz-adv-x="1271" d="M96 0v279l781 851h-738v242h1037v-278l-777 -848h777v-246h-1080zM246 1852h188l203 -148l203 148h184l-246 -316h-284z" />
<glyph horiz-adv-x="952" d="M43 0v217l506 543h-481v241h847v-196l-534 -569h534v-236h-872zM90 1481h188l203 -148l203 148h184l-246 -316h-284z" />
<glyph unicode=" "  horiz-adv-x="473" />
<glyph unicode="&#x09;" horiz-adv-x="473" />
<glyph unicode="&#xa0;" horiz-adv-x="473" />
<glyph unicode="!" horiz-adv-x="606" d="M182 100q0 55 36 90t89 35q51 0 86 -35t35 -90q0 -51 -35 -88t-86 -37q-53 0 -89 37t-36 88zM182 977v395h242v-389l-68 -602h-114z" />
<glyph unicode="&#x22;" horiz-adv-x="1048" d="M178 1372h264l-43 -549h-178zM606 1372h266l-38 -549h-185z" />
<glyph unicode="#" horiz-adv-x="1353" d="M82 395l29 197h217l32 213h-210l28 196h211l60 371h221l-58 -371h222l57 371h221l-57 -371h211l-29 -196h-211l-35 -213h217l-28 -197h-217l-62 -395h-231l67 395h-217l-63 -395h-221l63 395h-217zM553 592h217l29 213h-217z" />
<glyph unicode="$" horiz-adv-x="1300" d="M96 250l197 153q78 -90 164 -131t202 -41q131 0 215 50.5t84 128.5q0 82 -86 125q-37 14 -76.5 28.5t-86.5 24.5l-64 18l-63 15l-66 20q-106 25 -166.5 54.5t-103.5 78.5q-43 47 -64.5 106.5t-21.5 125.5q0 145 96 243.5t260 126.5v213h244v-213q213 -33 381 -200 l-183 -164q-129 135 -327 135q-104 0 -162.5 -38t-58.5 -103q0 -29 10 -50.5t34.5 -39t66.5 -32t106 -28.5q137 -29 229 -57.5t150 -57.5q92 -47 145 -138t53 -204q0 -209 -192 -321q-115 -70 -252 -82v-242h-244v246q-123 23 -225.5 84t-194.5 166z" />
<glyph unicode="%" horiz-adv-x="1814" d="M260 991q0 133 72 228q84 109 225 108q143 0 225 -106q74 -95 74 -230q0 -133 -74 -227q-82 -109 -225 -109q-141 0 -225 107q-72 94 -72 229zM362 -16l979 1343h183l-979 -1343h-183zM430 991q0 -86 21 -131q31 -68 106 -67q74 0 105 65q22 49 22 133q0 86 -20 131 q-31 68 -107 68q-72 0 -99.5 -57.5t-27.5 -141.5zM1032 319q0 133 72 228q84 109 227 108q141 0 225 -106q72 -95 72 -230q0 -133 -72 -227q-84 -109 -225 -108q-143 0 -227 106q-72 94 -72 229zM1202 319q0 -86 23 -131q31 -68 106 -67q72 0 103 65q24 49 24 133 q0 86 -22 132q-31 68 -105 67q-74 0 -101.5 -57.5t-27.5 -141.5z" />
<glyph unicode="&#x26;" horiz-adv-x="1372" d="M135 375q0 166 129 289q33 29 67 53t103 67q-37 45 -61.5 83t-40 72t-22.5 67.5t-7 72.5q0 68 26.5 125.5t74 99.5t112 64.5t139.5 22.5q74 0 135.5 -24t106.5 -65.5t69.5 -100t24.5 -128.5q0 -104 -51 -188t-174 -162l178 -217q14 41 23.5 81t9.5 87h227 q-10 -113 -34.5 -189.5t-75.5 -156.5l278 -328h-303l-121 145q-47 -49 -90 -82.5t-87 -53t-92 -29t-106 -9.5q-96 0 -176 30t-138 83t-91 127t-33 164zM381 381q0 -41 15.5 -77t43 -62.5t64.5 -43t78 -16.5q70 0 122 30t109 101l-250 303q-94 -51 -138 -109t-44 -126z M530 1083q0 -23 9.5 -49t23.5 -51q8 -10 18.5 -25.5t24.5 -37.5q8 -6 15 -19l20 -20q72 47 100.5 92t28.5 96q0 59 -31.5 94t-83.5 35q-55 0 -90 -31.5t-35 -83.5z" />
<glyph unicode="'" horiz-adv-x="712" d="M260 1405h207l-51 -399h-105z" />
<glyph unicode="(" horiz-adv-x="645" d="M135 688q0 92 9.5 185.5t33 182.5t64.5 169t104 147h246q-102 -156 -154.5 -327t-52.5 -357t51 -357t156 -331h-246q-61 61 -102 144t-64.5 175.5t-34 187.5t-10.5 181z" />
<glyph unicode=")" horiz-adv-x="645" d="M53 0q211 319 211 688q0 186 -54 357.5t-153 326.5h242q63 -68 104 -147.5t65 -168.5t33 -182.5t9 -185.5q0 -86 -10.5 -181t-34 -187.5t-64.5 -175.5t-102 -144h-246z" />
<glyph unicode="*" horiz-adv-x="972" d="M111 1020l63 213q53 -16 108.5 -26.5t98.5 -37.5q-18 55 -16 98.5t2 104.5h249q0 -51 -2 -103t-12 -104q35 25 82 35t115 27l63 -211q-47 -14 -94 -27.5t-98 -19.5q41 -27 64.5 -61t64.5 -85q-43 -33 -78 -58.5t-57 -41.5q-27 -20 -48 -35q0 -2 -15 17.5t-35.5 46 t-41 54.5t-28.5 46q-10 -18 -31 -46t-43 -54q-25 -31 -55 -64l-189 131q23 31 45 60q18 25 40 49t40 41q-47 6 -96 21.5t-96 29.5z" />
<glyph unicode="+" horiz-adv-x="972" d="M43 578v245h324v307h245v-307h322v-245h-322v-314h-245v314h-324z" />
<glyph unicode="," horiz-adv-x="360" d="M53 92q0 53 32 93t83 40q61 0 100 -43t39 -119q0 -66 -26.5 -125t-77.5 -102l-78 39q23 23 41 49.5t27 50.5h-15q-53 0 -89 35t-36 82z" />
<glyph unicode="-" horiz-adv-x="567" d="M43 553v246h481v-246h-481z" />
<glyph unicode="." horiz-adv-x="366" d="M53 111q0 53 39 92t90 39q55 0 93 -39t38 -92q0 -51 -37.5 -88t-93.5 -37q-51 0 -90 36.5t-39 88.5z" />
<glyph unicode="/" horiz-adv-x="952" d="M8 -176l660 1724h276l-659 -1724h-277z" />
<glyph unicode="0" horiz-adv-x="1507" d="M178 688q0 135 34 263t104.5 226.5t179 159t260.5 60.5q154 0 262 -61.5t178 -161t101.5 -225.5t31.5 -255q0 -133 -31.5 -261t-100.5 -230.5t-177.5 -165t-263.5 -62.5q-154 0 -263.5 60.5t-179 161t-102.5 228.5t-33 263zM424 694q0 -229 88 -351t244 -122q76 0 136 34 t103 96.5t65.5 149.5t22.5 193v-6q0 217 -86 340t-241 123q-92 0 -155.5 -43t-102.5 -109.5t-56.5 -147.5t-17.5 -157z" />
<glyph unicode="1" horiz-adv-x="727" d="M135 1223q80 18 128 51t89 98h197v-1372h-242l6 1026h-174z" />
<glyph unicode="2" horiz-adv-x="1300" d="M96 0q0 123 25.5 220t85.5 200q92 152 223 247t322 146q117 33 161.5 73t44.5 101q0 76 -69.5 118t-200.5 42q-135 0 -235.5 -36t-188.5 -114l-168 187q244 213 578 213q121 0 219 -29t166.5 -82t106.5 -129t38 -170q0 -86 -35.5 -162.5t-103.5 -136.5q-35 -25 -83 -49.5 t-120 -46.5q-70 -20 -116 -35.5t-80.5 -32t-62.5 -36t-58 -46.5q-47 -41 -81 -84t-69 -112h809v-246h-1108z" />
<glyph unicode="3" horiz-adv-x="1300" d="M96 256l197 147q72 -94 167 -136t214 -42q127 0 205.5 53.5t78.5 141.5q0 49 -29.5 100t-76.5 78q-29 14 -61.5 21.5t-73.5 7.5h-68v245h60q78 0 130 38t52 96q0 61 -65.5 103t-176.5 42q-86 0 -163.5 -35t-139.5 -100l-182 168q207 213 500 213q102 0 190 -29t151.5 -81 t99.5 -122.5t36 -152.5q0 -70 -24.5 -126.5t-86.5 -133.5q51 -45 84 -83t53.5 -75t28.5 -77t8 -89q0 -96 -42 -178t-114.5 -143.5t-172 -96.5t-216.5 -35q-127 0 -245.5 42t-210.5 128q-27 23 -48.5 44.5t-58.5 66.5z" />
<glyph unicode="4" horiz-adv-x="1478" d="M53 279v221l848 872h240v-872h202v-221h-202v-279h-240v279h-848zM367 500h534v549z" />
<glyph unicode="5" horiz-adv-x="1300" d="M96 129l129 209q184 -113 402 -113q156 0 243.5 64.5t87.5 181.5q0 55 -23.5 105.5t-62.5 82.5q-72 57 -223 58q-68 0 -128 -12.5t-136 -40.5l-246 63l43 645h916l-4 -242h-680l-15 -196q84 18 141.5 26.5t123.5 8.5q117 0 216 -38t171.5 -104.5t112.5 -158t40 -197.5 q0 -109 -43 -200t-119.5 -156.5t-183 -102.5t-231.5 -37q-141 0 -270.5 38t-260.5 116z" />
<glyph unicode="6" horiz-adv-x="1464" d="M178 545q0 217 93.5 397t267.5 301q59 41 120.5 70.5t128 48t141.5 27t165 8.5v-246h-25q-111 0 -190.5 -19.5t-151.5 -62.5q-94 -53 -153.5 -121.5t-110.5 -177.5q45 12 83 21.5t73.5 13.5t72.5 6t78 2q113 0 207 -30.5t162.5 -86t107.5 -131.5t39 -166 q0 -92 -39 -169.5t-108.5 -134t-165.5 -88.5t-213 -32q-123 0 -228.5 39t-189.5 111t-124 175t-40 245zM467 399q0 -80 78 -127t207 -47t208.5 46t79.5 124t-79.5 125t-208.5 47t-207 -46t-78 -122z" />
<glyph unicode="7" horiz-adv-x="1300" d="M53 1372h1112v-246q-35 -33 -57.5 -54t-38.5 -39.5t-28.5 -34t-24.5 -35.5q-70 -94 -130.5 -220.5t-101.5 -246.5q-20 -61 -33.5 -117.5t-22.5 -115t-13 -122t-6 -141.5h-246q2 78 5 140.5t10 119.5t18.5 112.5t27.5 119.5q37 129 87.5 246.5t111.5 219.5q16 33 40.5 70 t70.5 102h-777z" />
<glyph unicode="8" horiz-adv-x="1300" d="M96 438q0 190 154 332q-66 76 -88.5 129t-22.5 121q0 86 37 155.5t104.5 118.5t161 76t207.5 27q117 0 211 -27t160.5 -76t103.5 -118.5t37 -155.5q0 -68 -22.5 -121t-83.5 -129q149 -137 149 -332q0 -123 -47 -211t-124 -143t-177 -82t-207 -27q-127 0 -228.5 33 t-174 94.5t-111.5 146.5t-39 189zM342 438q0 -51 26.5 -98t73.5 -76q29 -16 87.5 -27.5t119.5 -11.5q88 0 144.5 13.5t93.5 46.5q71 65 71 153q0 102 -79.5 156.5t-229.5 54.5q-147 0 -227 -54t-80 -157zM385 1026q0 -61 68.5 -96t195.5 -35q129 0 197.5 35t68.5 96 q0 57 -68.5 91t-197.5 34q-127 0 -195.5 -34t-68.5 -91z" />
<glyph unicode="9" horiz-adv-x="1300" d="M96 977q0 92 39 169t108.5 133t166 87t211.5 31q129 0 234.5 -38t184.5 -108q86 -76 125 -178t39 -239q0 -217 -91 -400.5t-271 -304.5q-115 -84 -243 -119t-306 -35v250h24q104 0 185.5 18.5t152.5 59.5q47 27 85 56.5t69 65.5t58.5 81t52.5 100q-90 -29 -158 -38 t-150 -9q-113 0 -207 32t-162.5 87t-107.5 132t-39 167zM342 977q0 -76 79 -124t214 -48q123 0 201.5 48t78.5 124q0 78 -78.5 126t-205.5 48q-131 0 -210 -47t-79 -127z" />
<glyph unicode=":" horiz-adv-x="466" d="M96 111q0 59 41 99t94 40q57 0 98.5 -40t41.5 -99q0 -53 -41 -94.5t-99 -41.5q-53 0 -94 41t-41 95zM96 655q0 57 41 98.5t94 41.5q57 0 98.5 -41.5t41.5 -98.5q0 -55 -41 -95t-99 -40q-53 0 -94 40t-41 95z" />
<glyph unicode=";" horiz-adv-x="466" d="M96 655q0 57 41 98.5t94 41.5q57 0 98.5 -41.5t41.5 -98.5q0 -55 -41 -95t-99 -40q-53 0 -94 40t-41 95zM106 92q0 53 32 93t83 40q61 0 100 -43t39 -119q0 -66 -26.5 -125t-77.5 -102l-78 39q23 23 41.5 49.5t26.5 50.5h-15q-53 0 -89 35t-36 82z" />
<glyph unicode="&#x3c;" horiz-adv-x="911" d="M115 582v184l671 528v-338l-378 -280l378 -283v-338z" />
<glyph unicode="=" horiz-adv-x="972" d="M43 375v246h891v-246h-891zM43 770v246h891v-246h-891z" />
<glyph unicode="&#x3e;" horiz-adv-x="911" d="M125 55v336l379 281l-379 282v340l672 -528v-184z" />
<glyph unicode="?" horiz-adv-x="1101" d="M96 938q4 98 23.5 164.5t62.5 124.5q66 86 163 130t228 44q98 0 177 -27.5t136.5 -79t88.5 -121t31 -153.5q0 -55 -10.5 -99t-36 -86t-68.5 -86t-111 -100q-29 -23 -48 -40t-31.5 -33.5t-20.5 -34t-16 -41.5q-4 -14 -5.5 -24.5t-3.5 -24t-3 -32t-3 -48.5h-207 q2 49 4.5 81.5t5.5 57.5t8 43t11 39q16 33 32.5 60.5t45.5 56.5q10 10 17 16t36 31l47 49q59 51 85 101t26 106q0 66 -52.5 104.5t-144.5 38.5q-113 0 -168 -53t-63 -164h-236zM424 106q0 53 36 89t89 36t89 -35.5t36 -89.5q0 -55 -36 -93t-89 -38t-89 38t-36 93z" />
<glyph unicode="@" horiz-adv-x="1650" d="M135 688q0 158 53.5 288t148.5 224t225 145.5t286 51.5q143 0 265 -46t211 -127t138 -195t49 -249q0 -94 -27.5 -182t-76.5 -156.5t-114.5 -110.5t-141.5 -42q-102 0 -154 82q-47 -47 -106.5 -72t-124.5 -25q-70 0 -127 27t-99 75t-64.5 112.5t-22.5 138.5 q0 86 29.5 163.5t81.5 138t122 95.5t152 35q111 0 182 -72l10 47h203l-82 -442q-14 -66 -14 -82q0 -25 8 -34t16 -9q25 0 53.5 23.5t52 65.5t40 97.5t16.5 120.5q0 96 -33 176t-94 137.5t-147 89t-193 31.5q-117 0 -212 -39t-163.5 -108.5t-105.5 -165.5t-37 -211 q0 -113 37 -209t106 -168q137 -143 385 -143q104 0 203.5 20.5t216.5 71.5l53 -188q-121 -51 -235.5 -74t-237.5 -23q-313 0 -520 197q-102 98 -156.5 232.5t-54.5 287.5zM674 631q0 -72 34.5 -111t86.5 -39q33 0 62.5 16.5t53 47t38 73t14.5 95.5q0 66 -32 100.5t-83 34.5 q-33 0 -64.5 -17.5t-56.5 -46t-39 -68.5t-14 -85z" />
<glyph unicode="A" horiz-adv-x="1511" d="M53 0l578 1372h250l573 -1372h-264l-135 324h-598l-133 -324h-271zM563 567h385l-192 463z" />
<glyph unicode="B" horiz-adv-x="1382" d="M178 0v1372h641q45 0 77 -2t58.5 -8t50 -15.5t50.5 -23.5q86 -49 137 -131t51 -180q0 -168 -135 -285q178 -129 178 -324q0 -104 -56 -199t-151 -147q-100 -57 -213 -57h-67h-621zM428 246h391q98 0 159.5 48t61.5 126q0 39 -17 72.5t-47 59.5t-70 40t-87 14h-391v-360z M428 852h391q78 0 128 39t50 100t-47 98t-131 37h-391v-274z" />
<glyph unicode="C" horiz-adv-x="1382" d="M135 688q0 162 40 293t116 223t183.5 142.5t242.5 50.5q166 0 308 -79t222 -224l-217 -117q-29 43 -48 63.5t-48 38.5q-41 33 -101.5 52.5t-115.5 19.5q-94 0 -157.5 -42t-102.5 -107.5t-55.5 -146.5t-16.5 -161q0 -225 88 -349t244 -124q47 0 85 9.5t73.5 29t72.5 53 t82 82.5l217 -116q-37 -72 -94 -128.5t-126 -95.5t-148.5 -59.5t-161.5 -20.5q-135 0 -242.5 51.5t-183.5 144.5t-116 225t-40 292z" />
<glyph unicode="D" horiz-adv-x="1411" d="M178 0v1372h443q176 0 327 -86q160 -92 244 -242.5t84 -355.5q0 -207 -84 -360.5t-248 -245.5q-72 -41 -155.5 -61.5t-167.5 -20.5h-443zM428 246h193q109 0 198 53q211 110 211 389q0 139 -50 233.5t-153 151.5q-94 53 -206 53h-193v-880z" />
<glyph unicode="E" horiz-adv-x="1300" d="M178 0v1372h1002v-246h-752v-254h410v-251h-410v-375h776v-246h-1026z" />
<glyph unicode="F" horiz-adv-x="1261" d="M178 0v1372h1026v-246h-776v-278h428v-250h-428v-598h-250z" />
<glyph unicode="G" horiz-adv-x="1382" d="M135 688q0 158 41 288t115 224t178 145.5t233 51.5q186 0 312.5 -91.5t197.5 -250.5l-249 -86q-41 86 -104.5 134t-156.5 48q-72 0 -131 -35t-101 -96.5t-65.5 -146.5t-23.5 -185q0 -84 14.5 -167t51 -149.5t98 -108.5t157.5 -42q51 0 97.5 16.5t85.5 45t66.5 68.5 t39.5 87h-225v246h481v-178q0 -113 -43 -209t-116.5 -168t-173 -113t-212.5 -41q-152 0 -259 61.5t-175.5 162t-100.5 228.5t-32 261z" />
<glyph unicode="H" horiz-adv-x="1464" d="M178 0v1372h246v-530h616v530h246v-1372h-246v602l-616 -4v-598h-246z" />
<glyph unicode="I" horiz-adv-x="602" d="M178 0v1372h246v-1372h-246z" />
<glyph unicode="J" horiz-adv-x="1275" d="M53 367l240 61q18 -53 38.5 -82t53.5 -57q41 -29 89 -46.5t99 -17.5q78 0 144.5 40t101.5 102q16 35 24.5 77.5t8.5 108.5v819h246v-809q0 -104 -15.5 -182t-52.5 -139q-66 -121 -188.5 -194t-268.5 -73q-123 0 -230 52.5t-183 146.5q-35 39 -58.5 81t-48.5 112z" />
<glyph unicode="K" horiz-adv-x="1357" d="M178 0v1372h246v-598l485 598h318l-365 -448l453 -924h-281l-350 713l-260 -328v-385h-246z" />
<glyph unicode="L" horiz-adv-x="1261" d="M178 0v1372h246v-1161h780v-211h-1026z" />
<glyph unicode="M" horiz-adv-x="1642" d="M178 0v1372h242l399 -813l404 813h241v-1372h-241v838l-404 -838l-399 838v-838h-242z" />
<glyph unicode="N" horiz-adv-x="1464" d="M178 0v1372h242l629 -905v905h237v-1372h-213l-653 944v-944h-242z" />
<glyph unicode="O" horiz-adv-x="1425" d="M135 688q0 164 40 295t116 223t183.5 141.5t242.5 49.5q127 0 231.5 -51.5t180 -143.5t116.5 -222t41 -286q0 -162 -40 -294t-113.5 -226t-179 -146.5t-236.5 -52.5q-152 0 -261.5 62.5t-181 164t-105.5 229.5t-34 257zM385 688q0 -221 88 -344t244 -123q98 0 160.5 43 t98.5 110.5t50 150.5t14 163q0 217 -84 340t-239 123q-156 0 -244 -123t-88 -340z" />
<glyph unicode="P" horiz-adv-x="1329" d="M178 0v1372h641q78 0 132.5 -12t113.5 -45q98 -53 154.5 -149.5t56.5 -213.5q0 -53 -14.5 -106t-42 -100.5t-66.5 -87.5t-88 -66q-59 -33 -113.5 -43t-132.5 -10h-391v-539h-250zM428 784h399q92 0 147.5 46t55.5 122q0 80 -55 127t-148 47h-399v-342z" />
<glyph unicode="Q" horiz-adv-x="1507" d="M178 688q0 160 42 290t119 223t182.5 144.5t234.5 51.5q131 0 237.5 -51.5t181 -144.5t114.5 -223t40 -290q0 -174 -46 -311t-136 -232l72 -112l-185 -119l-65 104q-55 -23 -105.5 -33t-111.5 -10q-129 0 -234.5 51.5t-180.5 144.5t-117 225t-42 292zM424 688 q0 -221 87 -342t241 -121q16 0 32.5 1t38.5 5l-100 154l178 121l100 -150q35 53 58.5 144.5t23.5 187.5q0 217 -84 340t-243 123q-154 0 -243 -123t-89 -340z" />
<glyph unicode="R" horiz-adv-x="1382" d="M178 0v1372h631q76 0 129 -12t106 -45q98 -53 155.5 -149.5t57.5 -213.5t-58 -212t-165 -152l252 -588h-274l-221 539h-367v-539h-246zM424 784h389q92 0 145.5 46t53.5 122q0 80 -53.5 127t-145.5 47h-389v-342z" />
<glyph unicode="S" horiz-adv-x="1300" d="M96 250l197 153q78 -90 164 -131t202 -41q131 0 215 50.5t84 128.5q0 82 -86 125q-37 14 -76.5 28.5t-86.5 24.5l-64 18l-63 15l-66 20q-106 25 -166.5 54.5t-103.5 78.5q-43 47 -64.5 106.5t-21.5 125.5q0 86 34.5 155.5t96 119.5t148.5 77.5t192 27.5q154 0 279.5 -51 t230.5 -159l-183 -164q-129 135 -327 135q-104 0 -162.5 -38t-58.5 -103q0 -29 10 -50.5t34.5 -39t66.5 -32t106 -28.5q137 -29 229 -57.5t150 -57.5q92 -47 145 -138t53 -204q0 -209 -192 -321q-72 -45 -162 -68.5t-186 -23.5q-178 0 -314.5 64.5t-253.5 199.5z" />
<glyph unicode="T" horiz-adv-x="1136" d="M53 1130v242h1030v-242h-395v-1130h-239v1130h-396z" />
<glyph unicode="U" horiz-adv-x="1464" d="M178 553v819h246v-819q0 -61 9 -99t34 -79q41 -68 110.5 -109t153.5 -41t154.5 41t111.5 109q25 41 34 81t9 97v819h246v-819q0 -127 -41 -232.5t-114.5 -182.5t-176 -120t-223.5 -43t-222 43t-175 120t-115 182.5t-41 232.5z" />
<glyph unicode="V" horiz-adv-x="1386" d="M53 1372h264l377 -1001l375 1001h264l-510 -1372h-264z" />
<glyph unicode="W" horiz-adv-x="1560" d="M53 1372h254l150 -887l202 887h246l211 -887l141 887h250l-245 -1372h-261l-221 920l-217 -920h-260z" />
<glyph unicode="X" horiz-adv-x="1382" d="M96 0l449 723l-410 649h293l260 -420l260 420h295l-405 -649l448 -723h-289l-309 485l-303 -485h-289z" />
<glyph unicode="Y" horiz-adv-x="1507" d="M53 1372h303l400 -559l395 559h303l-577 -813v-559h-246v559z" />
<glyph unicode="Z" horiz-adv-x="1271" d="M96 0v279l781 851h-738v242h1037v-278l-777 -848h777v-246h-1080z" />
<glyph unicode="[" horiz-adv-x="841" d="M193 -215v1587h520v-215h-246v-1157h246v-215h-520z" />
<glyph unicode="\" horiz-adv-x="952" d="M8 1548h277l659 -1724h-276z" />
<glyph unicode="]" horiz-adv-x="841" d="M127 0h248v1157h-248v215h522v-1587h-522v215z" />
<glyph unicode="^" horiz-adv-x="1171" d="M94 750l379 622h223l379 -622h-287l-204 364l-205 -364h-285z" />
<glyph unicode="_" d="M0 -141h1014v-226h-1014v226z" />
<glyph unicode="`" d="M203 1481h354l176 -316h-237z" />
<glyph unicode="a" horiz-adv-x="1015" d="M68 332q0 127 61 199.5t153 103.5q78 26 166 27q16 0 32 -2q106 -6 198 -33q-10 94 -66 129q-52 33 -115 33q-5 -1 -9 -1q-70 -2 -137.5 -27.5t-104.5 -47.5l-101 211q94 51 182.5 76.5t182.5 25.5q399 0 399 -420v-606h-231v43q-49 -29 -114.5 -45t-133.5 -16t-133.5 18 t-115.5 60t-81.5 109t-31.5 163zM289 332q0 -37 23.5 -70t70.5 -49q33 -11 78 -11q20 0 43 2q74 7 174 52v154q-98 39 -172 45q-21 2 -39 2q-48 1 -83 -11q-48 -16 -71.5 -47.5t-23.5 -66.5z" />
<glyph unicode="b" horiz-adv-x="1048" d="M125 0v1305l246 92v-434q81 49 155 55q15 1 29 2q57 0 111 -20q66 -24 122 -75t96 -118.5t62.5 -148t22.5 -162.5q0 -133 -56.5 -250t-143.5 -188.5t-193 -83.5q-14 -2 -28 -1q-92 0 -177 66v-39h-246zM371 328q29 -53 65.5 -82t87.5 -29q45 0 82 21.5t62.5 60.5t40 90.5 t14.5 110.5q0 57 -12.5 110.5t-36.5 91.5q-22 38 -58 60q-30 18 -71 19q-7 0 -15 -1q-29 -2 -54 -13t-46.5 -27.5t-37 -34t-21.5 -31.5v-346z" />
<glyph unicode="c" horiz-adv-x="968" d="M82 500q0 115 36 211t99.5 166.5t151.5 109.5t190 39q109 0 204 -48t167 -140l-156 -203q-33 72 -89 114t-122 42q-109 0 -177.5 -81t-68.5 -210q0 -127 69 -208t177 -81q61 0 109.5 32.5t87.5 94.5l170 -174q-72 -92 -167 -140.5t-204 -48.5q-102 0 -190 39t-151.5 110 t-99.5 166t-36 210z" />
<glyph unicode="d" horiz-adv-x="1048" d="M82 496q0 104 31.5 200.5t86 169t127 116.5t154.5 44q33 0 56.5 -3t45 -13.5t43 -27.5t52.5 -44v367l252 92v-1397h-252v72q-31 -27 -52.5 -44.5t-43 -26.5t-45 -12t-56.5 -3q-82 0 -154.5 41t-127 110.5t-86 162.5t-31.5 196zM324 500q0 -59 15 -110.5t42 -90.5 t63.5 -60.5t79.5 -21.5q96 0 154 111v346q-33 53 -68 79.5t-86 26.5q-43 0 -79.5 -21.5t-63.5 -59t-42 -89t-15 -110.5z" />
<glyph unicode="e" horiz-adv-x="987" d="M82 500q0 109 32.5 203t91 163.5t136.5 109.5t168 40q88 0 167 -39t136 -115q25 -31 47.5 -75t38.5 -93t25.5 -100t9.5 -98v-72h-610q4 -10 4 -14t4 -21q18 -86 70.5 -136t117.5 -50q86 0 158 82l164 -146q-4 -4 -8 -10q-59 -72 -140.5 -113t-173.5 -41t-172 41t-139 112 t-93 166t-34 206zM338 616h356q-35 106 -72.5 142.5t-101.5 36.5q-66 0 -112 -37t-70 -142z" />
<glyph unicode="f" horiz-adv-x="602" d="M53 760v237h129v125q0 129 59.5 189.5t186.5 60.5q33 0 75 -3t70 -7v-215q-29 4 -43 4h-30q-43 0 -59.5 -24.5t-16.5 -67.5v-62h149v-237h-149v-760h-242v760h-129z" />
<glyph unicode="g" horiz-adv-x="1058" d="M82 496q0 106 32.5 205.5t88 174t127.5 116.5q60 35 126 35q12 0 25 -1q39 -4 64.5 -9t47 -15.5t44 -28t57.5 -43.5v71h240v-991q0 -55 -2 -95t-9.5 -72.5t-19.5 -61.5t-31 -60q-25 -41 -51 -72.5t-63 -59t-88.5 -54.5t-120.5 -55l-25 -10l-96 217q150 76 208 143.5 t58 144.5v107q-47 -51 -93 -79t-124 -28h-8q-77 0 -145 39q-72 41 -126.5 113t-85 167t-30.5 202zM328 496q0 -123 52 -204t140 -81q59 0 96 26.5t78 79.5v357q-41 53 -81 79.5t-93 26.5q-88 0 -140 -81t-52 -203z" />
<glyph unicode="h" horiz-adv-x="1079" d="M125 0v1305l246 92v-467q47 61 112.5 78.5t118.5 17.5q82 0 149.5 -25.5t115.5 -70.5t75 -107.5t27 -134.5v-688h-232v598q0 76 -53 129t-131 53q-33 0 -65.5 -9t-58.5 -30.5t-42 -59.5t-16 -93v-588h-246z" />
<glyph unicode="i" horiz-adv-x="499" d="M125 1276q0 51 36 86t89 35q51 0 88 -35t37 -86t-37 -88t-88 -37q-53 0 -89 36t-36 89zM129 0v1001h246v-1001h-246z" />
<glyph unicode="j" horiz-adv-x="538" d="M0 -221q57 4 90 19.5t49.5 45t20.5 75.5t4 114v968h256v-968q0 -76 -6 -131.5t-20.5 -98.5t-38 -76.5t-56.5 -64.5q-59 -49 -130 -73.5t-169 -30.5v221zM164 1276q0 51 37 86t88 35t88 -35t37 -86t-37 -88t-88 -37q-53 0 -89 36t-36 89z" />
<glyph unicode="k" horiz-adv-x="976" d="M125 0v1305l246 92v-742l264 342h303l-264 -319l274 -678h-246l-196 477l-135 -184v-293h-246z" />
<glyph unicode="l" horiz-adv-x="491" d="M125 0v1294l246 103v-1397h-246z" />
<glyph unicode="m" horiz-adv-x="1656" d="M125 0v1001h246v-81q43 43 106.5 74.5t138.5 31.5q154 0 261 -121q43 35 79.5 58.5t72.5 37t73 19.5t78 6q80 0 146.5 -25.5t115.5 -70.5t76.5 -107.5t27.5 -134.5v-688h-246v598q0 84 -47 133t-127 49q-37 0 -68.5 -14t-55 -37.5t-37 -55.5t-13.5 -67v-606h-235v598 q0 39 -14.5 73t-39 58.5t-58.5 37.5t-70 13q-72 0 -118 -51t-46 -127v-602h-246z" />
<glyph unicode="n" horiz-adv-x="1083" d="M125 0v1001h246v-81q41 47 102.5 73.5t132.5 26.5q82 0 149.5 -23.5t116 -66.5t75 -102.5t26.5 -129.5v-698h-242v602q0 84 -49 136.5t-133 52.5q-37 0 -70 -16.5t-57.5 -42t-37.5 -59.5t-13 -71v-602h-246z" />
<glyph unicode="o" horiz-adv-x="1040" d="M82 500q0 109 34 205t93 167.5t139 112.5t172 41t172 -41t139.5 -112.5t93 -167.5t33.5 -205t-33.5 -204t-93 -167t-139.5 -113t-172 -41t-172 41t-139 113t-93 167t-34 204zM328 500q0 -59 13 -110.5t39 -90.5t61.5 -60.5t78.5 -21.5t78 21.5t59.5 60.5t38 90.5 t13.5 110.5t-13.5 110.5t-38 89t-59.5 59t-78 21.5t-78.5 -21.5t-61.5 -59t-39 -89t-13 -110.5z" />
<glyph unicode="p" horiz-adv-x="1058" d="M125 -410v1411h246v-71q31 27 54.5 44t45 26.5t46 12.5t56.5 3q82 0 155 -41t128 -111.5t88 -165t33 -198.5t-33 -198.5t-88 -165t-128 -112.5t-155 -42q-33 0 -55 3t-43.5 13t-45 27.5t-58.5 46.5v-389zM371 328q41 -61 72.5 -86t86.5 -25q43 0 81 21.5t66 60.5t44 90.5 t16 110.5t-16 111.5t-44 90t-66 60t-81 22.5q-55 0 -95 -33.5t-64 -95.5v-327z" />
<glyph unicode="q" horiz-adv-x="1058" d="M82 496q0 104 32.5 198t88 166t129.5 114t153 42q33 0 58.5 -3t49 -12.5t48.5 -27t57 -43.5v71h236v-1325l-236 -90v482q-35 -29 -60.5 -47.5t-48 -28.5t-47 -13.5t-57.5 -3.5q-80 0 -153.5 42t-129 114t-88 166t-32.5 199zM324 496q0 -59 16 -111.5t44 -90.5t65.5 -60.5 t80.5 -22.5q102 0 168 113v350q-37 59 -75.5 82.5t-92.5 23.5q-43 0 -80.5 -21.5t-65.5 -59t-44 -90t-16 -113.5z" />
<glyph unicode="r" horiz-adv-x="784" d="M125 0v1001h246v-71q51 51 91 68.5t101 17.5t105.5 -12.5t87.5 -45.5l-78 -235q-51 57 -129 57q-33 0 -66.5 -14t-58.5 -39q-14 -10 -24.5 -28.5t-16.5 -39t-9 -40t-3 -31.5v-588h-246z" />
<glyph unicode="s" horiz-adv-x="933" d="M53 72l92 217q16 -4 53.5 -15.5t83.5 -23.5t96 -22.5t93 -10.5q96 0 137 18.5t41 53.5q0 20 -5 34.5t-23.5 25.5t-52 22.5t-91.5 27.5q-113 29 -180.5 58.5t-108.5 62.5q-51 41 -80.5 98.5t-29.5 122.5q0 131 105.5 205t283.5 74q98 0 193.5 -23.5t195.5 -76.5l-90 -218 q-70 41 -146.5 61.5t-148.5 20.5q-78 0 -112.5 -15t-34.5 -52q0 -18 7 -31.5t25.5 -24t52 -20.5t87.5 -20q207 -41 301 -122t94 -220q0 -141 -106.5 -219t-303.5 -78q-127 0 -230.5 21.5t-197.5 68.5z" />
<glyph unicode="t" horiz-adv-x="663" d="M14 766v231h164v308l250 92v-400h207v-231h-207v-395q0 -150 111 -150q37 0 57 12.5t53 40.5l-37 -245q-47 -25 -90 -39.5t-94 -14.5q-119 0 -184.5 84t-65.5 226v481h-164z" />
<glyph unicode="u" horiz-adv-x="1079" d="M111 307v690h245v-598q0 -80 47.5 -131t131.5 -51q37 0 71.5 15.5t60 40t41 56t15.5 66.5v602h229v-997h-229v78q-47 -31 -78 -49.5t-56.5 -27.5t-50 -12t-61.5 -3q-82 0 -149.5 23.5t-115.5 66.5t-74.5 102.5t-26.5 128.5z" />
<glyph unicode="v" horiz-adv-x="1030" d="M29 1001h245l242 -677l240 677h245l-356 -1001h-260z" />
<glyph unicode="w" horiz-adv-x="1368" d="M29 1001h241l154 -567l129 567h260l135 -563l150 563h241l-280 -1001h-236l-139 606l-139 -606h-238z" />
<glyph unicode="x" horiz-adv-x="1001" d="M0 0l367 563l-285 438h278l140 -221l145 221h275l-279 -438l360 -563h-274l-227 346l-221 -346h-279z" />
<glyph unicode="y" horiz-adv-x="1107" d="M29 1001h250l294 -688l261 688h249l-520 -1382h-250l144 381z" />
<glyph unicode="z" horiz-adv-x="952" d="M43 0v217l506 543h-481v241h847v-196l-534 -569h534v-236h-872z" />
<glyph unicode="{" horiz-adv-x="931" d="M121 473v219h45q121 0 121 135v142q0 414 538 413v-178q-150 -14 -202 -71.5t-52 -184.5v-59q0 -152 -47 -219q-41 -57 -145 -88q104 -29 145 -88q47 -66 47 -218v-59q0 -125 52 -180q53 -59 202 -74v-178q-539 0 -538 414v139q0 135 -121 135h-45z" />
<glyph unicode="|" horiz-adv-x="577" d="M162 -362v1931h254v-1931h-254z" />
<glyph unicode="}" horiz-adv-x="931" d="M106 -37q150 14 203 74q51 55 51 180v62q0 152 48 217q41 59 145 88q-104 31 -145 88q-47 68 -48 219v57q0 127 -52 184.5t-202 71.5v178q539 0 539 -413v-140q0 -135 121 -135h45v-219h-45q-121 0 -121 -135v-141q0 -414 -539 -414v178z" />
<glyph unicode="~" horiz-adv-x="1138" d="M86 623q119 297 309 297q92 0 195 -68q117 -78 158 -78q43 0 67.5 24.5t71.5 114.5l166 -82q-119 -297 -310 -296q-94 0 -194 67q-117 78 -158 78q-43 0 -67.5 -24.5t-71.5 -114.5z" />
<glyph unicode="&#xa1;" horiz-adv-x="606" d="M182 1247q0 51 35 88t86 37q53 0 89 -37t36 -88q0 -55 -36 -90t-89 -35q-51 0 -86 35t-35 90zM186 -25v390l68 602h115l59 -596v-396h-242z" />
<glyph unicode="&#xa2;" horiz-adv-x="1232" d="M135 727q0 109 30 201t82 164.5t125.5 122t162.5 71.5v201h245v-201q119 -18 208 -77.5t149 -153.5l-193 -97q-47 57 -104.5 96.5t-165.5 39.5q-78 0 -134.5 -35t-93 -89.5t-54 -119t-17.5 -123.5q0 -74 20.5 -142.5t59.5 -121.5t91 -85t118 -32q55 0 93 9.5t68.5 27.5 t58 44t60.5 58l193 -90q-59 -98 -148.5 -155.5t-208.5 -79.5v-242h-245v246q-188 41 -294 189.5t-106 373.5z" />
<glyph unicode="&#xa3;" horiz-adv-x="1357" d="M178 0v201q172 135 197 327h-197v224h160q-18 33 -51 88q-57 106 -58 192q0 174 135.5 268.5t383.5 94.5q301 -1 516 -187l-170 -202q-141 123 -351 122q-205 0 -204 -133q0 -51 51 -137q45 -74 55 -106h309v-224h-290q-10 -152 -134 -292h705v-236h-1057z" />
<glyph unicode="&#xa4;" horiz-adv-x="1099" d="M74 330l131 125q-66 100 -66 219q0 117 66 217l-131 127l110 110l133 -129q104 68 230 68q127 0 229 -68l135 129l113 -110l-135 -127q68 -100 67 -217q0 -119 -67 -219l135 -125l-113 -113l-135 129q-102 -66 -229 -65q-125 0 -230 65l-133 -129zM295 674 q0 -100 72.5 -171t177.5 -71q104 0 178 70.5t74 171.5q0 100 -74 169.5t-178 69.5t-177 -69.5t-73 -169.5z" />
<glyph unicode="&#xa5;" horiz-adv-x="1386" d="M45 1372h326l186 -325q106 -184 137 -269q45 106 140 269l186 325h321l-512 -840v-96h330v-231h-330v-205h-272v205h-330v231h330v90z" />
<glyph unicode="&#xa6;" horiz-adv-x="514" d="M178 336h156v-735h-156v735zM178 649v733h156v-733h-156z" />
<glyph unicode="&#xa7;" horiz-adv-x="1419" d="M111 580q0 213 221 323q-39 68 -39 172q0 139 110.5 229.5t311.5 90.5q250 0 436 -135l-139 -187q-143 94 -316 94q-141 0 -141 -92q0 -45 63 -76q49 -25 273 -96q217 -68 309 -151q107 -96 107 -260q0 -211 -224 -324q41 -63 41 -170q0 -141 -106 -227 q-115 -92 -316 -93q-248 0 -434 134l140 188q141 -96 313 -96q141 0 141 92q0 45 -61 76q-51 27 -271.5 96.5t-310.5 153.5q-109 96 -108 258zM383 600q0 -74 88 -125q49 -31 193 -78q164 -53 241 -90q131 53 131 166q0 74 -88 125q-51 29 -194 76q-162 53 -242 90 q-129 -53 -129 -164z" />
<glyph unicode="&#xa8;" d="M129 1317q0 63 47 108t111 45q66 0 112.5 -45t46.5 -108q0 -59 -48 -105.5t-111 -46.5q-61 0 -109.5 46t-48.5 106zM567 1317q0 63 48.5 108t111.5 45t109.5 -45t46.5 -108q0 -59 -46 -105.5t-110 -46.5q-63 0 -111.5 46t-48.5 106z" />
<glyph unicode="&#xa9;" horiz-adv-x="1693" d="M115 686q0 301 210 505t523 204q311 0 521 -204t210 -505t-210 -505t-521 -204q-313 0 -523 204t-210 505zM246 686q0 -250 172 -416t430 -166q256 0 428 166t172 416t-172 416t-428 166q-258 0 -430 -166t-172 -416zM506 690q0 174 99.5 287t252.5 113q205 0 293 -170 l-160 -86q-51 86 -135 86q-160 0 -160 -230q0 -227 162 -227q80 0 146 100l141 -94q-104 -176 -291 -176q-158 0 -253 107.5t-95 289.5z" />
<glyph unicode="&#xaa;" horiz-adv-x="966" d="M98 821q0 133 103 207q94 70 250 70q100 0 170 -33v41q0 109 -129 108q-131 0 -238 -55l-86 152q158 84 324 84q160 0 255 -78t95 -215v-561h-221v61q-76 -76 -199 -76q-133 0 -221 72q-102 80 -103 223zM322 821q0 -115 137 -114q107 -1 162 79v107q-61 35 -162 35 q-137 0 -137 -107z" />
<glyph unicode="&#xab;" horiz-adv-x="1271" d="M61 514l330 514h289l-320 -512l320 -516h-289zM571 514l330 514h291l-322 -512l322 -516h-291z" />
<glyph unicode="&#xac;" horiz-adv-x="1157" d="M111 801v155h936v-563h-162v408h-774z" />
<glyph unicode="&#xad;" horiz-adv-x="1255" d="M111 586v252h1034v-252h-1034z" />
<glyph unicode="&#xae;" horiz-adv-x="1693" d="M115 686q0 301 210 505t523 204q311 0 521 -204t210 -505t-210 -505t-521 -204q-313 0 -523 204t-210 505zM246 686q0 -250 172 -416t430 -166q256 0 428 166t172 416t-172 416t-428 166q-258 0 -430 -166t-172 -416zM551 313v772h371q121 0 194 -57q80 -65 80 -184 q0 -168 -158 -228l154 -303h-191l-145 283h-137v-283h-168zM719 739h190q115 1 115 101q0 98 -115 98h-190v-199z" />
<glyph unicode="&#xaf;" horiz-adv-x="1003" d="M211 1145v196h582v-196h-582z" />
<glyph unicode="&#xb0;" horiz-adv-x="985" d="M92 1008q0 162 116 274.5t284 112.5q172 0 286.5 -112.5t114.5 -274.5q0 -166 -114.5 -279t-286.5 -113q-168 0 -284 114t-116 278zM303 1008q0 -78 55.5 -132.5t133.5 -54.5q82 0 135 53.5t53 133.5q0 76 -54.5 129t-133.5 53q-78 0 -133.5 -54.5t-55.5 -127.5z" />
<glyph unicode="&#xb1;" horiz-adv-x="1085" d="M74 0v156h934v-156h-934zM74 614v154h387v373h166v-373h381v-154h-381v-372h-166v372h-387z" />
<glyph unicode="&#xb2;" horiz-adv-x="657" d="M25 680q4 53 47 106q57 78 196.5 176.5t163.5 124.5q37 37 37 78q0 45 -31.5 74t-97.5 29q-68 0 -97.5 -21.5t-52.5 -85.5l-145 17q29 102 98.5 150t196.5 48q147 0 215 -54t68 -134q0 -78 -60 -146q-41 -53 -194 -159q-82 -57 -115 -90h373v-113h-602z" />
<glyph unicode="&#xb3;" horiz-adv-x="657" d="M33 862l137 12q20 -55 55 -73q41 -29 97 -29q70 0 111.5 37t41.5 86q0 47 -34.5 74.5t-123.5 27.5q-12 0 -28 -2h-23l23 101q80 0 113.5 27.5t33.5 68.5q0 35 -27.5 58.5t-86.5 23.5q-53 0 -82 -20.5t-54 -73.5l-139 20q43 98 103.5 137t171.5 39q143 0 206.5 -49 t63.5 -123q0 -51 -35 -92t-100 -55q88 -23 129 -70t41 -110q0 -84 -79 -148.5t-218 -64.5q-135 0 -207 52t-90 146z" />
<glyph unicode="&#xb4;" d="M281 1165l176 316h354l-295 -316h-235z" />
<glyph unicode="&#xb5;" horiz-adv-x="1140" d="M156 -379v1364h170v-418q0 -225 25.5 -293.5t83 -107.5t128.5 -39q78 0 140.5 41t86 106.5t23.5 288.5v422h170v-985h-154v119q-53 -76 -104 -105q-63 -37 -154 -37q-80 0 -143 31q-43 23 -102 90v-477h-170z" />
<glyph unicode="&#xb6;" horiz-adv-x="1466" d="M94 942q0 199 139 318q127 113 322 112h731v-1734h-231v1527h-129v-1527h-232v874h-139q-195 0 -324 111q-137 121 -137 319z" />
<glyph unicode="&#xb7;" horiz-adv-x="544" d="M86 688q0 72 55.5 124t132.5 52q74 0 131.5 -52t57.5 -124t-57.5 -124t-131.5 -52q-78 0 -133 52t-55 124z" />
<glyph unicode="&#xb8;" d="M258 -307l41 74q92 -47 180 -48q111 0 111 68q0 51 -64 51q-33 0 -59 -14l-74 26l56 222h112l-35 -154q29 14 80 14q158 0 158 -139q0 -172 -242 -172q-147 0 -264 72z" />
<glyph unicode="&#xb9;" horiz-adv-x="657" d="M102 1090v114q61 18 134 67.5t120 104.5h105v-696h-144v514q-96 -76 -215 -104z" />
<glyph unicode="&#xba;" horiz-adv-x="995" d="M106 958q0 190 110 313.5t280 123.5t280.5 -123.5t110.5 -313.5t-110.5 -311t-280.5 -121t-280 121t-110 311zM336 958q0 -221 160 -221q78 0 119.5 64.5t41.5 156.5q0 100 -42 162t-119 62q-160 0 -160 -224z" />
<glyph unicode="&#xbb;" horiz-adv-x="1271" d="M94 0l320 516l-320 512h289l330 -514l-330 -514h-289zM604 0l320 516l-320 512h289l332 -514l-332 -514h-289z" />
<glyph unicode="&#xbc;" horiz-adv-x="2416" d="M135 1171v172q57 0 111.5 27t75.5 64h215v-1311h-256v1048h-146zM176 -614l1491 2048h268l-1495 -2048h-264zM1063 -150l805 846h258v-798h155v-185h-155v-327h-258v327h-805v137zM1430 -102h438v460z" />
<glyph unicode="&#xbd;" horiz-adv-x="2641" d="M135 1171v172q57 0 111.5 27t75.5 64h215v-1311h-256v1048h-146zM176 -614l1491 2048h268l-1495 -2048h-264zM1432 360q23 127 161 232q160 121 383 121q272 0 430 -127q139 -113 140 -275q0 -182 -189 -276q-160 -72 -260 -119q-176 -86 -270 -178q-61 -57 -96 -148h815 v-204h-1114q0 215 98 368q113 176 438 336q137 66 279 131q41 33 41 90q0 92 -84 144.5t-228 52.5q-139 0 -227 -90q-29 -29 -63 -90z" />
<glyph unicode="&#xbe;" horiz-adv-x="2979" d="M96 434l250 53q39 -66 72 -96q100 -96 237 -96q115 0 195 51q102 63 102 186q0 111 -106 158q-70 31 -178 31v205q123 0 166 14q66 23 65 100q0 82 -66.5 135.5t-177.5 53.5q-121 0 -190 -62q-25 -20 -47 -61l-250 61q51 90 96 133q145 133 391 134q223 0 363.5 -115 t140.5 -279q0 -106 -47 -172q-14 -20 -45 -45q49 -31 72 -59q71 -89 71 -232q0 -217 -194 -339q-160 -102 -361 -103q-279 0 -448 172q-53 57 -111 172zM739 -614l1491 2048h267l-1493 -2048h-265zM1626 -150l805 846h258v-798h156v-185h-156v-327h-258v327h-805v137z M1993 -102h438v460z" />
<glyph unicode="&#xbf;" horiz-adv-x="1101" d="M96 356q0 55 10.5 99.5t36 86.5t68.5 86t111 99q29 23 48 40t31.5 33.5t20.5 34t16 42.5q2 14 4 24t4.5 23.5t3.5 32t3 49.5h206q-2 -49 -4 -82t-5 -57.5t-8 -43t-11 -39.5q-16 -33 -32.5 -60.5t-45.5 -55.5q-10 -10 -17.5 -16.5t-35.5 -30.5l-47 -50q-59 -51 -85 -101 t-26 -105q0 -66 52 -105t145 -39q113 0 168 53.5t63 163.5h236q-4 -98 -23.5 -164.5t-62.5 -123.5q-66 -86 -163.5 -130.5t-228.5 -44.5q-98 0 -177 28t-136 79t-88 120.5t-31 153.5zM428 1270q0 55 36 93t89 38t89 -38t36 -93q0 -53 -36 -89t-89 -36t-89 36t-36 89z" />
<glyph unicode="&#xc0;" horiz-adv-x="1511" d="M53 0l578 1372h250l573 -1372h-264l-135 324h-598l-133 -324h-271zM490 1852h354l176 -316h-237zM563 567h385l-192 463z" />
<glyph unicode="&#xc1;" horiz-adv-x="1511" d="M53 0l578 1372h250l573 -1372h-264l-135 324h-598l-133 -324h-271zM490 1536l176 316h354l-295 -316h-235zM563 567h385l-192 463z" />
<glyph unicode="&#xc2;" horiz-adv-x="1511" d="M53 0l578 1372h250l573 -1372h-264l-135 324h-598l-133 -324h-271zM367 1536l248 316h284l246 -316h-188l-203 148l-203 -148h-184zM563 567h385l-192 463z" />
<glyph unicode="&#xc3;" horiz-adv-x="1511" d="M53 0l578 1372h250l573 -1372h-264l-135 324h-598l-133 -324h-271zM359 1536q0 131 64.5 207t168.5 76q96 0 205 -59q72 -39 106 -39q51 0 68 92h182q0 -129 -63.5 -205t-169.5 -76q-94 0 -203 60q-72 39 -106 39q-53 0 -70 -95h-182zM563 567h385l-192 463z" />
<glyph unicode="&#xc4;" horiz-adv-x="1511" d="M53 0l578 1372h250l573 -1372h-264l-135 324h-598l-133 -324h-271zM379 1688q0 63 47 108t111 45q66 0 112.5 -45t46.5 -108q0 -59 -48 -105.5t-111 -46.5q-61 0 -109.5 46t-48.5 106zM563 567h385l-192 463zM817 1688q0 63 48.5 108t111.5 45t109.5 -45t46.5 -108 q0 -59 -46 -105.5t-110 -46.5q-63 0 -111.5 46t-48.5 106z" />
<glyph unicode="&#xc5;" horiz-adv-x="1511" d="M53 0l578 1372h250l573 -1372h-264l-135 324h-598l-133 -324h-271zM481 1798q0 113 78 189t195 76q119 0 196.5 -76t77.5 -189q0 -115 -77.5 -188.5t-196.5 -73.5q-117 0 -195 74t-78 188zM563 567h385l-192 463zM635 1798q0 -49 35 -83.5t84 -34.5q51 0 86 34.5t35 83.5 t-35 83t-86 34q-49 0 -84 -33.5t-35 -83.5z" />
<glyph unicode="&#xc6;" horiz-adv-x="2103" d="M29 0l952 1372h973v-262h-662v-248h367v-258h-367v-342h693v-262h-963v246h-506l-164 -246h-323zM678 485h344v252q0 43 2 152.5t2 134.5q-49 -92 -164 -264z" />
<glyph unicode="&#xc7;" horiz-adv-x="1382" d="M135 688q0 162 40 293t116 223t183.5 142.5t242.5 50.5q166 0 308 -79t222 -224l-217 -117q-29 43 -48 63.5t-48 38.5q-41 33 -101.5 52.5t-115.5 19.5q-94 0 -157.5 -42t-102.5 -107.5t-55.5 -146.5t-16.5 -161q0 -225 88 -349t244 -124q47 0 85 9.5t73.5 29t72.5 53 t82 82.5l217 -116q-37 -72 -94 -128.5t-126 -95.5t-148.5 -59.5t-161.5 -20.5q-135 0 -242.5 51.5t-183.5 144.5t-116 225t-40 292zM438 -307l41 74q92 -47 180 -48q111 0 111 68q0 51 -64 51q-33 0 -59 -14l-74 26l56 222h112l-35 -154q29 14 80 14q158 0 158 -139 q0 -172 -242 -172q-147 0 -264 72z" />
<glyph unicode="&#xc8;" horiz-adv-x="1300" d="M178 0v1372h1002v-246h-752v-254h410v-251h-410v-375h776v-246h-1026zM385 1852h354l176 -316h-237z" />
<glyph unicode="&#xc9;" horiz-adv-x="1300" d="M178 0v1372h1002v-246h-752v-254h410v-251h-410v-375h776v-246h-1026zM385 1536l176 316h354l-295 -316h-235z" />
<glyph unicode="&#xca;" horiz-adv-x="1300" d="M178 0v1372h1002v-246h-752v-254h410v-251h-410v-375h776v-246h-1026zM260 1536l248 316h284l246 -316h-188l-203 148l-203 -148h-184z" />
<glyph unicode="&#xcb;" horiz-adv-x="1300" d="M178 0v1372h1002v-246h-752v-254h410v-251h-410v-375h776v-246h-1026zM272 1688q0 63 47 108t111 45q66 0 112.5 -45t46.5 -108q0 -59 -48 -105.5t-111 -46.5q-61 0 -109.5 46t-48.5 106zM710 1688q0 63 48.5 108t111.5 45t109.5 -45t46.5 -108q0 -59 -46 -105.5 t-110 -46.5q-63 0 -111.5 46t-48.5 106z" />
<glyph unicode="&#xcc;" horiz-adv-x="602" d="M39 1852h354l176 -316h-237zM178 0v1372h246v-1372h-246z" />
<glyph unicode="&#xcd;" horiz-adv-x="602" d="M39 1536l176 316h354l-295 -316h-235zM178 0v1372h246v-1372h-246z" />
<glyph unicode="&#xce;" horiz-adv-x="602" d="M-86 1536l248 316h284l246 -316h-188l-203 148l-203 -148h-184zM178 0v1372h246v-1372h-246z" />
<glyph unicode="&#xcf;" horiz-adv-x="602" d="M-74 1688q0 63 47 108t111 45q66 0 112.5 -45t46.5 -108q0 -59 -48 -105.5t-111 -46.5q-61 0 -109.5 46t-48.5 106zM178 0v1372h246v-1372h-246zM364 1688q0 63 48.5 108t111.5 45t109.5 -45t46.5 -108q0 -59 -46 -105.5t-110 -46.5q-63 0 -111.5 46t-48.5 106z" />
<glyph unicode="&#xd0;" horiz-adv-x="1431" d="M-4 618v123h156v619h489q164 0 254 -21q119 -25 205 -96q115 -90 170 -232.5t55 -322.5q0 -209 -67.5 -358.5t-165 -217t-224.5 -96.5q-68 -16 -200 -16h-516v618h-156zM340 160h301q143 0 222 25.5t124 70.5q68 63 105.5 171t37.5 263q0 160 -35.5 255t-97 152.5 t-135.5 80t-223 22.5h-299v-459h389v-123h-389v-458z" />
<glyph unicode="&#xd1;" horiz-adv-x="1464" d="M178 0v1372h242l629 -905v905h237v-1372h-213l-653 944v-944h-242zM334 1536q0 131 64.5 207t168.5 76q96 0 205 -59q72 -39 106 -39q51 0 68 92h182q0 -129 -63.5 -205t-169.5 -76q-94 0 -203 60q-72 39 -106 39q-53 0 -70 -95h-182z" />
<glyph unicode="&#xd2;" horiz-adv-x="1425" d="M135 688q0 164 40 295t116 223t183.5 141.5t242.5 49.5q127 0 231.5 -51.5t180 -143.5t116.5 -222t41 -286q0 -162 -40 -294t-113.5 -226t-179 -146.5t-236.5 -52.5q-152 0 -261.5 62.5t-181 164t-105.5 229.5t-34 257zM385 688q0 -221 88 -344t244 -123q98 0 160.5 43 t98.5 110.5t50 150.5t14 163q0 217 -84 340t-239 123q-156 0 -244 -123t-88 -340zM447 1852h354l176 -316h-237z" />
<glyph unicode="&#xd3;" horiz-adv-x="1425" d="M135 688q0 164 40 295t116 223t183.5 141.5t242.5 49.5q127 0 231.5 -51.5t180 -143.5t116.5 -222t41 -286q0 -162 -40 -294t-113.5 -226t-179 -146.5t-236.5 -52.5q-152 0 -261.5 62.5t-181 164t-105.5 229.5t-34 257zM385 688q0 -221 88 -344t244 -123q98 0 160.5 43 t98.5 110.5t50 150.5t14 163q0 217 -84 340t-239 123q-156 0 -244 -123t-88 -340zM447 1536l176 316h354l-295 -316h-235z" />
<glyph unicode="&#xd4;" horiz-adv-x="1425" d="M135 688q0 164 40 295t116 223t183.5 141.5t242.5 49.5q127 0 231.5 -51.5t180 -143.5t116.5 -222t41 -286q0 -162 -40 -294t-113.5 -226t-179 -146.5t-236.5 -52.5q-152 0 -261.5 62.5t-181 164t-105.5 229.5t-34 257zM324 1536l248 316h284l246 -316h-188l-203 148 l-203 -148h-184zM385 688q0 -221 88 -344t244 -123q98 0 160.5 43t98.5 110.5t50 150.5t14 163q0 217 -84 340t-239 123q-156 0 -244 -123t-88 -340z" />
<glyph unicode="&#xd5;" horiz-adv-x="1425" d="M135 688q0 164 40 295t116 223t183.5 141.5t242.5 49.5q127 0 231.5 -51.5t180 -143.5t116.5 -222t41 -286q0 -162 -40 -294t-113.5 -226t-179 -146.5t-236.5 -52.5q-152 0 -261.5 62.5t-181 164t-105.5 229.5t-34 257zM316 1536q0 131 64.5 207t168.5 76q96 0 205 -59 q72 -39 106 -39q51 0 68 92h182q0 -129 -63.5 -205t-169.5 -76q-94 0 -203 60q-72 39 -106 39q-53 0 -70 -95h-182zM385 688q0 -221 88 -344t244 -123q98 0 160.5 43t98.5 110.5t50 150.5t14 163q0 217 -84 340t-239 123q-156 0 -244 -123t-88 -340z" />
<glyph unicode="&#xd6;" horiz-adv-x="1425" d="M135 688q0 164 40 295t116 223t183.5 141.5t242.5 49.5q127 0 231.5 -51.5t180 -143.5t116.5 -222t41 -286q0 -162 -40 -294t-113.5 -226t-179 -146.5t-236.5 -52.5q-152 0 -261.5 62.5t-181 164t-105.5 229.5t-34 257zM336 1688q0 63 47 108t111 45q66 0 112.5 -45 t46.5 -108q0 -59 -48 -105.5t-111 -46.5q-61 0 -109.5 46t-48.5 106zM385 688q0 -221 88 -344t244 -123q98 0 160.5 43t98.5 110.5t50 150.5t14 163q0 217 -84 340t-239 123q-156 0 -244 -123t-88 -340zM774 1688q0 63 48.5 108t111.5 45t109.5 -45t46.5 -108 q0 -59 -46 -105.5t-110 -46.5q-63 0 -111.5 46t-48.5 106z" />
<glyph unicode="&#xd7;" horiz-adv-x="1157" d="M156 381l305 291l-305 291l116 112l303 -289l310 289l110 -112l-301 -291l301 -289l-110 -115l-310 291l-303 -291z" />
<glyph unicode="&#xd8;" horiz-adv-x="1425" d="M112 -6.5q-3 16.5 11 33.5l1149 1370q14 16 30.5 16t27.5 -10t14.5 -26.5t-11.5 -33.5l-1149 -1370q-14 -16 -30.5 -16t-27.5 10t-14 26.5zM135 688q0 164 40 295t116 223t183.5 141.5t242.5 49.5q127 0 231.5 -51.5t180 -143.5t116.5 -222t41 -286q0 -162 -40 -294 t-113.5 -226t-179 -146.5t-236.5 -52.5q-152 0 -261.5 62.5t-181 164t-105.5 229.5t-34 257zM385 688q0 -221 88 -344t244 -123q98 0 160.5 43t98.5 110.5t50 150.5t14 163q0 217 -84 340t-239 123q-156 0 -244 -123t-88 -340z" />
<glyph unicode="&#xd9;" horiz-adv-x="1464" d="M178 553v819h246v-819q0 -61 9 -99t34 -79q41 -68 110.5 -109t153.5 -41t154.5 41t111.5 109q25 41 34 81t9 97v819h246v-819q0 -127 -41 -232.5t-114.5 -182.5t-176 -120t-223.5 -43t-222 43t-175 120t-115 182.5t-41 232.5zM467 1852h354l176 -316h-237z" />
<glyph unicode="&#xda;" horiz-adv-x="1464" d="M178 553v819h246v-819q0 -61 9 -99t34 -79q41 -68 110.5 -109t153.5 -41t154.5 41t111.5 109q25 41 34 81t9 97v819h246v-819q0 -127 -41 -232.5t-114.5 -182.5t-176 -120t-223.5 -43t-222 43t-175 120t-115 182.5t-41 232.5zM467 1536l176 316h354l-295 -316h-235z" />
<glyph unicode="&#xdb;" horiz-adv-x="1464" d="M178 553v819h246v-819q0 -61 9 -99t34 -79q41 -68 110.5 -109t153.5 -41t154.5 41t111.5 109q25 41 34 81t9 97v819h246v-819q0 -127 -41 -232.5t-114.5 -182.5t-176 -120t-223.5 -43t-222 43t-175 120t-115 182.5t-41 232.5zM342 1536l248 316h284l246 -316h-188 l-203 148l-203 -148h-184z" />
<glyph unicode="&#xdc;" horiz-adv-x="1464" d="M178 553v819h246v-819q0 -61 9 -99t34 -79q41 -68 110.5 -109t153.5 -41t154.5 41t111.5 109q25 41 34 81t9 97v819h246v-819q0 -127 -41 -232.5t-114.5 -182.5t-176 -120t-223.5 -43t-222 43t-175 120t-115 182.5t-41 232.5zM354 1688q0 63 47 108t111 45 q66 0 112.5 -45t46.5 -108q0 -59 -48 -105.5t-111 -46.5q-61 0 -109.5 46t-48.5 106zM792 1688q0 63 48.5 108t111.5 45t109.5 -45t46.5 -108q0 -59 -46 -105.5t-110 -46.5q-63 0 -111.5 46t-48.5 106z" />
<glyph unicode="&#xdd;" horiz-adv-x="1507" d="M53 1372h303l400 -559l395 559h303l-577 -813v-559h-246v559zM488 1536l176 316h354l-295 -316h-235z" />
<glyph unicode="&#xde;" horiz-adv-x="1320" d="M152 0v1360h188v-277h346q143 0 217 -14q104 -14 176 -61t114 -132t42 -186q0 -172 -115.5 -293t-417.5 -121h-362v-276h-188zM340 436h367q182 0 258.5 64.5t76.5 183.5q0 84 -45 145.5t-118 79.5q-49 14 -177 15h-362v-488z" />
<glyph unicode="&#xdf;" horiz-adv-x="1187" d="M135 -379v1401q0 401 430 401q186 0 305 -92q127 -100 127 -270q0 -211 -188 -273q297 -57 297 -354q0 -434 -492 -434h-45v246h37q217 0 217 188q0 219 -241 219h-13v236h11q133 0 133 141q0 137 -152 137q-84 0 -114.5 -38.5t-30.5 -120.5v-1252z" />
<glyph unicode="&#xe0;" horiz-adv-x="1015" d="M68 332q0 127 61 199.5t152.5 103.5t198 25.5t198.5 -33.5q-10 94 -65.5 129t-125 32.5t-137 -28t-104.5 -47.5l-101 211q94 51 182.5 76.5t182.5 25.5q399 0 399 -420v-606h-231v43q-49 -29 -114.5 -45t-133.5 -16t-133.5 18t-115.5 60t-81.5 109t-31.5 163zM242 1481 h354l176 -316h-237zM289 332q0 -37 23.5 -70t70.5 -49t121 -9t174 52v154q-98 39 -172 45t-122 -9.5t-71.5 -47t-23.5 -66.5z" />
<glyph unicode="&#xe1;" horiz-adv-x="1015" d="M68 332q0 127 61 199.5t152.5 103.5t198 25.5t198.5 -33.5q-10 94 -65.5 129t-125 32.5t-137 -28t-104.5 -47.5l-101 211q94 51 182.5 76.5t182.5 25.5q399 0 399 -420v-606h-231v43q-49 -29 -114.5 -45t-133.5 -16t-133.5 18t-115.5 60t-81.5 109t-31.5 163zM246 1165 l176 316h354l-295 -316h-235zM289 332q0 -37 23.5 -70t70.5 -49t121 -9t174 52v154q-98 39 -172 45t-122 -9.5t-71.5 -47t-23.5 -66.5z" />
<glyph unicode="&#xe2;" horiz-adv-x="1015" d="M68 332q0 127 61 199.5t152.5 103.5t198 25.5t198.5 -33.5q-10 94 -65.5 129t-125 32.5t-137 -28t-104.5 -47.5l-101 211q94 51 182.5 76.5t182.5 25.5q399 0 399 -420v-606h-231v43q-49 -29 -114.5 -45t-133.5 -16t-133.5 18t-115.5 60t-81.5 109t-31.5 163zM119 1165 l248 316h284l246 -316h-188l-203 148l-203 -148h-184zM289 332q0 -37 23.5 -70t70.5 -49t121 -9t174 52v154q-98 39 -172 45t-122 -9.5t-71.5 -47t-23.5 -66.5z" />
<glyph unicode="&#xe3;" horiz-adv-x="1015" d="M68 332q0 127 61 199.5t152.5 103.5t198 25.5t198.5 -33.5q-10 94 -65.5 129t-125 32.5t-137 -28t-104.5 -47.5l-101 211q94 51 182.5 76.5t182.5 25.5q399 0 399 -420v-606h-231v43q-49 -29 -114.5 -45t-133.5 -16t-133.5 18t-115.5 60t-81.5 109t-31.5 163zM113 1165 q0 131 64.5 207t168.5 76q96 0 205 -59q72 -39 106 -39q51 0 68 92h182q0 -129 -63.5 -205t-169.5 -76q-94 0 -203 60q-72 39 -106 39q-53 0 -70 -95h-182zM289 332q0 -37 23.5 -70t70.5 -49t121 -9t174 52v154q-98 39 -172 45t-122 -9.5t-71.5 -47t-23.5 -66.5z" />
<glyph unicode="&#xe4;" horiz-adv-x="1015" d="M68 332q0 127 61 199.5t152.5 103.5t198 25.5t198.5 -33.5q-10 94 -65.5 129t-125 32.5t-137 -28t-104.5 -47.5l-101 211q94 51 182.5 76.5t182.5 25.5q399 0 399 -420v-606h-231v43q-49 -29 -114.5 -45t-133.5 -16t-133.5 18t-115.5 60t-81.5 109t-31.5 163zM131 1317 q0 63 47 108t111 45q66 0 112.5 -45t46.5 -108q0 -59 -48 -105.5t-111 -46.5q-61 0 -109.5 46t-48.5 106zM289 332q0 -37 23.5 -70t70.5 -49t121 -9t174 52v154q-98 39 -172 45t-122 -9.5t-71.5 -47t-23.5 -66.5zM569 1317q0 63 48.5 108t111.5 45t109.5 -45t46.5 -108 q0 -59 -46 -105.5t-110 -46.5q-63 0 -111.5 46t-48.5 106z" />
<glyph unicode="&#xe5;" horiz-adv-x="1015" d="M68 332q0 127 61 199.5t152.5 103.5t198 25.5t198.5 -33.5q-10 94 -65.5 129t-125 32.5t-137 -28t-104.5 -47.5l-101 211q94 51 182.5 76.5t182.5 25.5q399 0 399 -420v-606h-231v43q-49 -29 -114.5 -45t-133.5 -16t-133.5 18t-115.5 60t-81.5 109t-31.5 163zM233 1427 q0 113 78 189t195 76q119 0 196.5 -76t77.5 -189q0 -115 -77.5 -188.5t-196.5 -73.5q-117 0 -195 74t-78 188zM289 332q0 -37 23.5 -70t70.5 -49t121 -9t174 52v154q-98 39 -172 45t-122 -9.5t-71.5 -47t-23.5 -66.5zM387 1427q0 -49 35 -83.5t84 -34.5q51 0 86 34.5 t35 83.5t-35 83t-86 34q-49 0 -84 -33.5t-35 -83.5z" />
<glyph unicode="&#xe6;" horiz-adv-x="1708" d="M86 344q0 166 125 258q115 84 305 84q121 0 205 -41v51q0 57 -39 94t-113 37q-160 0 -290 -69l-109 188q186 104 399 105q209 0 320 -119q115 119 285 119q207 0 329 -160q117 -148 117 -377q0 -47 -4 -86h-635q6 -98 74 -149q59 -45 145 -46q117 0 182 72l199 -160 q-63 -78 -167.5 -123t-213.5 -45q-238 0 -373 158q-145 -158 -346 -158q-162 0 -272 91q-123 100 -123 276zM365 344q0 -137 161 -137q138 0 195 94v131q-70 43 -195 43q-162 0 -161 -131zM985 631h365q-6 78 -52 127q-53 57 -139 57q-74 0 -120 -52t-54 -132z" />
<glyph unicode="&#xe7;" horiz-adv-x="968" d="M82 500q0 115 36 211t99.5 166.5t151.5 109.5t190 39q109 0 204 -48t167 -140l-156 -203q-33 72 -89 114t-122 42q-109 0 -177.5 -81t-68.5 -210q0 -127 69 -208t177 -81q61 0 109.5 32.5t87.5 94.5l170 -174q-72 -92 -167 -140.5t-204 -48.5q-102 0 -190 39t-151.5 110 t-99.5 166t-36 210zM233 -307l41 74q92 -47 180 -48q111 0 111 68q0 51 -64 51q-33 0 -59 -14l-74 26l56 222h112l-35 -154q29 14 80 14q158 0 158 -139q0 -172 -242 -172q-147 0 -264 72z" />
<glyph unicode="&#xe8;" horiz-adv-x="987" d="M82 500q0 109 32.5 203t91 163.5t136.5 109.5t168 40q88 0 167 -39t136 -115q25 -31 47.5 -75t38.5 -93t25.5 -100t9.5 -98v-72h-610q4 -10 4 -14t4 -21q18 -86 70.5 -136t117.5 -50q86 0 158 82l164 -146q-4 -4 -8 -10q-59 -72 -140.5 -113t-173.5 -41t-172 41t-139 112 t-93 166t-34 206zM228 1481h354l176 -316h-237zM338 616h356q-35 106 -72.5 142.5t-101.5 36.5q-66 0 -112 -37t-70 -142z" />
<glyph unicode="&#xe9;" horiz-adv-x="987" d="M82 500q0 109 32.5 203t91 163.5t136.5 109.5t168 40q88 0 167 -39t136 -115q25 -31 47.5 -75t38.5 -93t25.5 -100t9.5 -98v-72h-610q4 -10 4 -14t4 -21q18 -86 70.5 -136t117.5 -50q86 0 158 82l164 -146q-4 -4 -8 -10q-59 -72 -140.5 -113t-173.5 -41t-172 41t-139 112 t-93 166t-34 206zM232 1165l176 316h354l-295 -316h-235zM338 616h356q-35 106 -72.5 142.5t-101.5 36.5q-66 0 -112 -37t-70 -142z" />
<glyph unicode="&#xea;" horiz-adv-x="987" d="M82 500q0 109 32.5 203t91 163.5t136.5 109.5t168 40q88 0 167 -39t136 -115q25 -31 47.5 -75t38.5 -93t25.5 -100t9.5 -98v-72h-610q4 -10 4 -14t4 -21q18 -86 70.5 -136t117.5 -50q86 0 158 82l164 -146q-4 -4 -8 -10q-59 -72 -140.5 -113t-173.5 -41t-172 41t-139 112 t-93 166t-34 206zM107 1165l248 316h284l246 -316h-188l-203 148l-203 -148h-184zM338 616h356q-35 106 -72.5 142.5t-101.5 36.5q-66 0 -112 -37t-70 -142z" />
<glyph unicode="&#xeb;" horiz-adv-x="987" d="M82 500q0 109 32.5 203t91 163.5t136.5 109.5t168 40q88 0 167 -39t136 -115q25 -31 47.5 -75t38.5 -93t25.5 -100t9.5 -98v-72h-610q4 -10 4 -14t4 -21q18 -86 70.5 -136t117.5 -50q86 0 158 82l164 -146q-4 -4 -8 -10q-59 -72 -140.5 -113t-173.5 -41t-172 41t-139 112 t-93 166t-34 206zM119 1317q0 63 47 108t111 45q66 0 112.5 -45t46.5 -108q0 -59 -48 -105.5t-111 -46.5q-61 0 -109.5 46t-48.5 106zM338 616h356q-35 106 -72.5 142.5t-101.5 36.5q-66 0 -112 -37t-70 -142zM557 1317q0 63 48.5 108t111.5 45t109.5 -45t46.5 -108 q0 -59 -46 -105.5t-110 -46.5q-63 0 -111.5 46t-48.5 106z" />
<glyph unicode="&#xec;" horiz-adv-x="499" d="M-12 1481h354l176 -316h-237zM129 0v1001h246v-1001h-246z" />
<glyph unicode="&#xed;" horiz-adv-x="499" d="M-12 1165l176 316h354l-295 -316h-235zM129 0v1001h246v-1001h-246z" />
<glyph unicode="&#xee;" horiz-adv-x="499" d="M-137 1165l248 316h284l246 -316h-188l-203 148l-203 -148h-184zM129 0v1001h246v-1001h-246z" />
<glyph unicode="&#xef;" horiz-adv-x="499" d="M-125 1317q0 63 47 108t111 45q66 0 112.5 -45t46.5 -108q0 -59 -48 -105.5t-111 -46.5q-61 0 -109.5 46t-48.5 106zM129 0v1001h246v-1001h-246zM313 1317q0 63 48.5 108t111.5 45t109.5 -45t46.5 -108q0 -59 -46 -105.5t-110 -46.5q-63 0 -111.5 46t-48.5 106z" />
<glyph unicode="&#xf0;" horiz-adv-x="1099" d="M72 479q0 244 122.5 375t313.5 131q55 0 98 -11t105 -44q-33 70 -58.5 106.5t-77.5 91.5l-266 -116l-43 96l234 100q-95 82 -201 152h209q68 -49 121 -94l205 94l45 -94l-168 -78q313 -340 313 -705q0 -236 -136 -371t-343 -135q-246 0 -385 179q-88 119 -88 323z M250 475q0 -180 84 -270t211 -90q123 0 210 95.5t87 281.5q0 178 -87 271t-216 93q-127 0 -208 -93t-81 -288z" />
<glyph unicode="&#xf1;" horiz-adv-x="1083" d="M125 0v1001h246v-81q41 47 102.5 73.5t132.5 26.5q82 0 149.5 -23.5t116 -66.5t75 -102.5t26.5 -129.5v-698h-242v602q0 84 -49 136.5t-133 52.5q-37 0 -70 -16.5t-57.5 -42t-37.5 -59.5t-13 -71v-602h-246zM144 1165q0 131 64.5 207t168.5 76q96 0 205 -59 q72 -39 106 -39q51 0 68 92h182q0 -129 -63.5 -205t-169.5 -76q-94 0 -203 60q-72 39 -106 39q-53 0 -70 -95h-182z" />
<glyph unicode="&#xf2;" horiz-adv-x="1040" d="M82 500q0 109 34 205t93 167.5t139 112.5t172 41t172 -41t139.5 -112.5t93 -167.5t33.5 -205t-33.5 -204t-93 -167t-139.5 -113t-172 -41t-172 41t-139 113t-93 167t-34 204zM254 1481h354l176 -316h-237zM328 500q0 -59 13 -110.5t39 -90.5t61.5 -60.5t78.5 -21.5 t78 21.5t59.5 60.5t38 90.5t13.5 110.5t-13.5 110.5t-38 89t-59.5 59t-78 21.5t-78.5 -21.5t-61.5 -59t-39 -89t-13 -110.5z" />
<glyph unicode="&#xf3;" horiz-adv-x="1040" d="M82 500q0 109 34 205t93 167.5t139 112.5t172 41t172 -41t139.5 -112.5t93 -167.5t33.5 -205t-33.5 -204t-93 -167t-139.5 -113t-172 -41t-172 41t-139 113t-93 167t-34 204zM258 1165l176 316h354l-295 -316h-235zM328 500q0 -59 13 -110.5t39 -90.5t61.5 -60.5 t78.5 -21.5t78 21.5t59.5 60.5t38 90.5t13.5 110.5t-13.5 110.5t-38 89t-59.5 59t-78 21.5t-78.5 -21.5t-61.5 -59t-39 -89t-13 -110.5z" />
<glyph unicode="&#xf4;" horiz-adv-x="1040" d="M82 500q0 109 34 205t93 167.5t139 112.5t172 41t172 -41t139.5 -112.5t93 -167.5t33.5 -205t-33.5 -204t-93 -167t-139.5 -113t-172 -41t-172 41t-139 113t-93 167t-34 204zM131 1165l248 316h284l246 -316h-188l-203 148l-203 -148h-184zM328 500q0 -59 13 -110.5 t39 -90.5t61.5 -60.5t78.5 -21.5t78 21.5t59.5 60.5t38 90.5t13.5 110.5t-13.5 110.5t-38 89t-59.5 59t-78 21.5t-78.5 -21.5t-61.5 -59t-39 -89t-13 -110.5z" />
<glyph unicode="&#xf5;" horiz-adv-x="1040" d="M82 500q0 109 34 205t93 167.5t139 112.5t172 41t172 -41t139.5 -112.5t93 -167.5t33.5 -205t-33.5 -204t-93 -167t-139.5 -113t-172 -41t-172 41t-139 113t-93 167t-34 204zM123 1165q0 131 64.5 207t168.5 76q96 0 205 -59q72 -39 106 -39q51 0 68 92h182 q0 -129 -63.5 -205t-169.5 -76q-94 0 -203 60q-72 39 -106 39q-53 0 -70 -95h-182zM328 500q0 -59 13 -110.5t39 -90.5t61.5 -60.5t78.5 -21.5t78 21.5t59.5 60.5t38 90.5t13.5 110.5t-13.5 110.5t-38 89t-59.5 59t-78 21.5t-78.5 -21.5t-61.5 -59t-39 -89t-13 -110.5z" />
<glyph unicode="&#xf6;" horiz-adv-x="1040" d="M82 500q0 109 34 205t93 167.5t139 112.5t172 41t172 -41t139.5 -112.5t93 -167.5t33.5 -205t-33.5 -204t-93 -167t-139.5 -113t-172 -41t-172 41t-139 113t-93 167t-34 204zM143 1317q0 63 47 108t111 45q66 0 112.5 -45t46.5 -108q0 -59 -48 -105.5t-111 -46.5 q-61 0 -109.5 46t-48.5 106zM328 500q0 -59 13 -110.5t39 -90.5t61.5 -60.5t78.5 -21.5t78 21.5t59.5 60.5t38 90.5t13.5 110.5t-13.5 110.5t-38 89t-59.5 59t-78 21.5t-78.5 -21.5t-61.5 -59t-39 -89t-13 -110.5zM581 1317q0 63 48.5 108t111.5 45t109.5 -45t46.5 -108 q0 -59 -46 -105.5t-110 -46.5q-63 0 -111.5 46t-48.5 106z" />
<glyph unicode="&#xf7;" horiz-adv-x="1085" d="M74 594v156h934v-156h-934zM444 297v188h197v-188h-197zM444 854v193h197v-193h-197z" />
<glyph unicode="&#xf8;" horiz-adv-x="1040" d="M56 -6.5q-3 16.5 12 33.5l888 999q14 16 31 16t28 -10t14 -26.5t-11 -32.5l-889 -1000q-14 -16 -30.5 -16t-28 10t-14.5 26.5zM82 500q0 109 34 205t93 167.5t139 112.5t172 41t172 -41t139.5 -112.5t93 -167.5t33.5 -205t-33.5 -204t-93 -167t-139.5 -113t-172 -41 t-172 41t-139 113t-93 167t-34 204zM328 500q0 -59 13 -110.5t39 -90.5t61.5 -60.5t78.5 -21.5t78 21.5t59.5 60.5t38 90.5t13.5 110.5t-13.5 110.5t-38 89t-59.5 59t-78 21.5t-78.5 -21.5t-61.5 -59t-39 -89t-13 -110.5z" />
<glyph unicode="&#xf9;" horiz-adv-x="1079" d="M111 307v690h245v-598q0 -80 47.5 -131t131.5 -51q37 0 71.5 15.5t60 40t41 56t15.5 66.5v602h229v-997h-229v78q-47 -31 -78 -49.5t-56.5 -27.5t-50 -12t-61.5 -3q-82 0 -149.5 23.5t-115.5 66.5t-74.5 102.5t-26.5 128.5zM275 1481h354l176 -316h-237z" />
<glyph unicode="&#xfa;" horiz-adv-x="1079" d="M111 307v690h245v-598q0 -80 47.5 -131t131.5 -51q37 0 71.5 15.5t60 40t41 56t15.5 66.5v602h229v-997h-229v78q-47 -31 -78 -49.5t-56.5 -27.5t-50 -12t-61.5 -3q-82 0 -149.5 23.5t-115.5 66.5t-74.5 102.5t-26.5 128.5zM277 1165l176 316h354l-295 -316h-235z" />
<glyph unicode="&#xfb;" horiz-adv-x="1079" d="M111 307v690h245v-598q0 -80 47.5 -131t131.5 -51q37 0 71.5 15.5t60 40t41 56t15.5 66.5v602h229v-997h-229v78q-47 -31 -78 -49.5t-56.5 -27.5t-50 -12t-61.5 -3q-82 0 -149.5 23.5t-115.5 66.5t-74.5 102.5t-26.5 128.5zM150 1165l248 316h284l246 -316h-188l-203 148 l-203 -148h-184z" />
<glyph unicode="&#xfc;" horiz-adv-x="1079" d="M111 307v690h245v-598q0 -80 47.5 -131t131.5 -51q37 0 71.5 15.5t60 40t41 56t15.5 66.5v602h229v-997h-229v78q-47 -31 -78 -49.5t-56.5 -27.5t-50 -12t-61.5 -3q-82 0 -149.5 23.5t-115.5 66.5t-74.5 102.5t-26.5 128.5zM162 1317q0 63 47 108t111 45q66 0 112.5 -45 t46.5 -108q0 -59 -48 -105.5t-111 -46.5q-61 0 -109.5 46t-48.5 106zM600 1317q0 63 48.5 108t111.5 45t109.5 -45t46.5 -108q0 -59 -46 -105.5t-110 -46.5q-63 0 -111.5 46t-48.5 106z" />
<glyph unicode="&#xfd;" horiz-adv-x="1107" d="M29 1001h250l294 -688l261 688h249l-520 -1382h-250l144 381zM289 1165l176 316h354l-295 -316h-235z" />
<glyph unicode="&#xfe;" horiz-adv-x="1099" d="M129 -379v1739h176v-479q72 72 123 96q72 31 160 31q131 0 231.5 -65.5t152.5 -183.5t52 -259q0 -154 -58.5 -272.5t-165 -184.5t-225.5 -66q-80 0 -149 31q-49 25 -121 94v-481h-176zM289 487q0 -190 80 -280t194 -90q115 0 199 93t84 292q0 188 -82 281.5t-193 93.5 q-115 0 -198.5 -100t-83.5 -290z" />
<glyph unicode="&#xff;" horiz-adv-x="1107" d="M29 1001h250l294 -688l261 688h249l-520 -1382h-250l144 381zM176 1317q0 63 47 108t111 45q66 0 112.5 -45t46.5 -108q0 -59 -48 -105.5t-111 -46.5q-61 0 -109.5 46t-48.5 106zM614 1317q0 63 48.5 108t111.5 45t109.5 -45t46.5 -108q0 -59 -46 -105.5t-110 -46.5 q-63 0 -111.5 46t-48.5 106z" />
<glyph unicode="&#x152;" horiz-adv-x="2138" d="M106 686q0 317 166 513t451 196q225 0 340 -146v123h926v-268h-682v-238h387v-266h-387v-332h710v-268h-954v123q-111 -145 -340 -146q-285 0 -453 199q-164 193 -164 510zM399 686q0 -197 76 -309q84 -125 248 -125t248 125q76 112 76 309t-76 309q-84 125 -248 125 t-248 -125q-76 -113 -76 -309z" />
<glyph unicode="&#x153;" horiz-adv-x="1742" d="M82 514q0 236 135 386.5t344 150.5q219 0 326 -152q127 152 321 152q207 0 330 -160q117 -148 117 -377q0 -47 -4 -86h-635q6 -98 74 -149q59 -45 143 -46q119 0 184 72l197 -160q-61 -78 -166 -123t-215 -45q-225 0 -348 148q-102 -147 -324 -148q-209 0 -344 151 t-135 386zM365 514q0 -125 49 -197q51 -78 147 -77q96 0 150 84q49 73 49 190q0 123 -50.5 200t-148.5 77q-96 0 -146 -76t-50 -201zM1020 631h364q-6 78 -51 127q-53 57 -139 57q-74 0 -120 -52t-54 -132z" />
<glyph unicode="&#x178;" horiz-adv-x="1507" d="M53 1372h303l400 -559l395 559h303l-577 -813v-559h-246v559zM377 1688q0 63 47 108t111 45q66 0 112.5 -45t46.5 -108q0 -59 -48 -105.5t-111 -46.5q-61 0 -109.5 46t-48.5 106zM815 1688q0 63 48.5 108t111.5 45t109.5 -45t46.5 -108q0 -59 -46 -105.5t-110 -46.5 q-63 0 -111.5 46t-48.5 106z" />
<glyph unicode="&#x2c6;" d="M117 1165l248 316h284l246 -316h-188l-203 148l-203 -148h-184z" />
<glyph unicode="&#x2dc;" d="M115 1165q0 131 64.5 207t168.5 76q96 0 205 -59q72 -39 106 -39q51 0 68 92h182q0 -129 -63.5 -205t-169.5 -76q-94 0 -203 60q-72 39 -106 39q-53 0 -70 -95h-182z" />
<glyph unicode="&#x2000;" horiz-adv-x="1031" />
<glyph unicode="&#x2001;" horiz-adv-x="2063" />
<glyph unicode="&#x2002;" horiz-adv-x="1031" />
<glyph unicode="&#x2003;" horiz-adv-x="2063" />
<glyph unicode="&#x2004;" horiz-adv-x="687" />
<glyph unicode="&#x2005;" horiz-adv-x="515" />
<glyph unicode="&#x2006;" horiz-adv-x="343" />
<glyph unicode="&#x2007;" horiz-adv-x="343" />
<glyph unicode="&#x2008;" horiz-adv-x="257" />
<glyph unicode="&#x2009;" horiz-adv-x="412" />
<glyph unicode="&#x200a;" horiz-adv-x="114" />
<glyph unicode="&#x2010;" horiz-adv-x="567" d="M43 553v246h481v-246h-481z" />
<glyph unicode="&#x2011;" horiz-adv-x="567" d="M43 553v246h481v-246h-481z" />
<glyph unicode="&#x2012;" horiz-adv-x="567" d="M43 553v246h481v-246h-481z" />
<glyph unicode="&#x2013;" d="M111 586v252h807v-252h-807z" />
<glyph unicode="&#x2014;" horiz-adv-x="1255" d="M111 586v252h1034v-252h-1034z" />
<glyph unicode="&#x2018;" horiz-adv-x="569" d="M88 821l166 551h192l-28 -551h-330z" />
<glyph unicode="&#x2019;" horiz-adv-x="569" d="M123 821l29 551h329l-166 -551h-192z" />
<glyph unicode="&#x201a;" horiz-adv-x="569" d="M123 -219l29 551h329l-166 -551h-192z" />
<glyph unicode="&#x201c;" horiz-adv-x="1097" d="M88 821l166 551h192l-28 -551h-330zM616 821l166 551h193l-29 -551h-330z" />
<glyph unicode="&#x201d;" horiz-adv-x="1097" d="M123 821l29 551h329l-166 -551h-192zM653 821l27 551h332l-166 -551h-193z" />
<glyph unicode="&#x201e;" horiz-adv-x="1097" d="M123 -219l29 551h329l-166 -551h-192zM653 -219l27 551h332l-166 -551h-193z" />
<glyph unicode="&#x2022;" horiz-adv-x="993" d="M131 717q0 150 105.5 254t259.5 104q156 0 260 -104t104 -254q0 -147 -104.5 -249.5t-259.5 -102.5q-154 0 -259.5 102t-105.5 250z" />
<glyph unicode="&#x2026;" horiz-adv-x="1652" d="M86 162q0 76 56.5 130t133.5 54q76 0 133.5 -54t57.5 -130q0 -74 -57.5 -129.5t-133.5 -55.5q-78 0 -134 55.5t-56 129.5zM637 162q0 76 56.5 130t133.5 54q76 0 133.5 -54t57.5 -130q0 -74 -57.5 -129.5t-133.5 -55.5q-78 0 -134 55.5t-56 129.5zM1188 162q0 76 56 130 t134 54q76 0 133.5 -54t57.5 -130q0 -74 -57.5 -129.5t-133.5 -55.5q-78 0 -134 55.5t-56 129.5z" />
<glyph unicode="&#x202f;" horiz-adv-x="412" />
<glyph unicode="&#x2039;" horiz-adv-x="761" d="M61 514l330 514h289l-320 -512l320 -516h-289z" />
<glyph unicode="&#x203a;" horiz-adv-x="761" d="M82 0l319 514l-319 514h289l329 -512l-329 -516h-289z" />
<glyph unicode="&#x205f;" horiz-adv-x="515" />
<glyph unicode="&#x20ac;" horiz-adv-x="1099" d="M-29 498l29 123h102q-4 39 -4 84v38h-127l29 123h111q59 303 315 434q154 82 342 82q180 0 301 -73l-39 -174q-114 96 -264 96q-166 0 -274 -76q-66 -45 -119 -129q-55 -82 -68 -160h664l-29 -123h-645q-6 -20 -6 -36q0 -72 6 -86h620l-26 -123h-576q43 -213 195 -303 q115 -66 242 -66q182 0 280 92v-190q-119 -53 -264 -54q-440 0 -592 349q-31 70 -51 172h-152z" />
<glyph unicode="&#x2122;" horiz-adv-x="1681" d="M39 1212v160h590v-160h-199v-612h-192v612h-199zM762 600v772h190l172 -334q25 -47 58 -127q12 37 55 127l170 334h192v-772h-180v383q0 12 1 42t1 44q-2 -12 -35 -76l-208 -418l-205 418q-8 18 -35 74q4 -55 4 -84v-383h-180z" />
<glyph unicode="&#xe000;" horiz-adv-x="1003" d="M0 0v1004h1004v-1004h-1004z" />
</font>
</defs>
</svg>
